<?xml version="1.0" standalone="no"?><!DOCTYPE svg PUBLIC "-//W3C//DTD SVG 1.1//EN" "http://www.w3.org/Graphics/SVG/1.1/DTD/svg11.dtd"><svg t="1778746960459" class="icon" viewBox="0 0 1024 1024" version="1.1" xmlns="http://www.w3.org/2000/svg" p-id="5131" xmlns:xlink="http://www.w3.org/1999/xlink" width="200" height="200"><path d="M0 0m225.890154 0l572.219692 0q225.890154 0 225.890154 225.890154l0 572.219692q0 225.890154-225.890154 225.890154l-572.219692 0q-225.890154 0-225.890154-225.890154l0-572.219692q0-225.890154 225.890154-225.890154Z" fill="#2653FF" p-id="5132"></path><path d="M766.442541 246.047683H530.066525v-68.244462h225.754454a10.633898 10.633898 0 0 1 10.633898 10.633899z" fill="#F8A300" p-id="5133"></path><path d="M370.718421 178.666763H198.145795v667.530016h65.000012V647.520522h79.297794v198.676257h65.000012V215.391955a36.774537 36.774537 0 0 0-36.725192-36.725192zM342.443601 583.384052h-79.297794V443.539653h79.297794z m0-200.625393h-79.297794V243.666775h79.297794zM718.565326 491.57724l120.895828-104.130784-42.424567-49.246545-109.287361 94.163046-8.919151-17.11046v-84.812125a35.133808 35.133808 0 0 0-35.096799-35.096799H487.395232v64.987676h126.410158v484.557881h65.000012V555.935764l136.279205 261.529751 57.635236-30.038912z" fill="#FFFFFF" p-id="5134"></path><path d="M560.611226 411.033479h-115.467853v65.000012H521.82587l-84.108955 327.627694 62.915176 16.172901 93.755949-365.154746a34.948763 34.948763 0 0 0-33.838496-43.658197z" fill="#FFFFFF" p-id="5135"></path></svg>