<svg xmlns="http://www.w3.org/2000/svg" viewBox="0 0 1200 800" fill="none">
  <rect width="1200" height="800" rx="36" fill="#fffdf8"/>
  <g stroke="#111111" stroke-width="8" stroke-linecap="round" stroke-linejoin="round">
    <path d="M160 572c81-84 153-125 245-138" />
    <path d="M407 434c83 3 149 34 218 92" />
    <path d="M627 525c44 39 78 84 103 136" />
    <path d="M734 660c-56 13-107 10-154-11" />
    <path d="M562 634c-62 37-129 53-203 49" />
    <circle cx="262" cy="372" r="92" fill="#fff"/>
    <path d="M229 372c0-30 22-53 52-53 29 0 51 19 58 48 7 30-8 62-37 75-39 18-73-11-73-70Z" fill="#fff"/>
    <path d="M248 304c15-16 33-25 54-28" />
    <path d="M317 309c14 5 27 15 36 31" />
    <path d="M277 364c8 5 19 6 29 0" />
    <path d="M266 459l28 44 18-41" fill="#fff"/>
    <path d="M233 566h104" />
    <path d="M257 566l-26 87" />
    <path d="M308 566l25 86" />
    <path d="M204 514l-44 39" />
    <path d="M332 516l54 18" />
    <rect x="466" y="244" width="262" height="170" rx="28" fill="#fff"/>
    <path d="M500 292h198" />
    <path d="M500 340h152" />
    <path d="M500 388h108" />
    <rect x="482" y="464" width="220" height="120" rx="22" fill="#fff"/>
    <path d="M510 500h160" />
    <path d="M510 542h110" />
    <path d="M792 264c58 5 106 29 145 72 39 43 60 93 64 151" />
    <path d="M1001 500c-12 52-37 96-75 132" />
    <circle cx="950" cy="560" r="100" fill="#fff"/>
    <path d="M905 563c0-28 22-51 49-51 29 0 50 22 50 51 0 28-21 50-50 50-27 0-49-22-49-50Z" fill="#fff"/>
    <path d="M954 409v48" />
    <path d="M954 662v42" />
    <path d="M865 560h-54" />
    <path d="M1048 560h54" />
  </g>
  <g stroke="#f15a24" stroke-width="8" stroke-linecap="round" stroke-linejoin="round">
    <path d="M725 314c27 20 48 46 63 79" />
    <path d="M866 541l-62 19" />
    <path d="M1036 490c17 27 25 55 25 86" />
  </g>
  <g fill="#0f62fe" stroke="#111111" stroke-width="6" stroke-linecap="round" stroke-linejoin="round">
    <path d="M928 505l24 40 18-39" />
    <path d="M913 561h42" />
  </g>
  <text x="76" y="106" font-size="44" font-family="Arial, sans-serif" fill="#111111">Small loop</text>
  <text x="873" y="716" font-size="34" font-family="Arial, sans-serif" fill="#111111">Done</text>
</svg>
