<svg xmlns="http://www.w3.org/2000/svg" viewBox="0 0 1200 800" fill="none">
  <rect width="1200" height="800" rx="36" fill="#fffdf8"/>
  <g stroke="#111111" stroke-width="8" stroke-linecap="round" stroke-linejoin="round">
    <circle cx="250" cy="392" r="92" fill="#fff"/>
    <path d="M218 392c0-30 22-53 52-53 29 0 51 19 58 48 7 30-8 62-37 75-39 18-73-11-73-70Z" fill="#fff"/>
    <path d="M236 325c13-16 30-25 49-28" />
    <path d="M299 330c15 5 28 16 37 31" />
    <path d="M259 385c8 5 19 6 29 0" />
    <path d="M248 480l28 44 18-41" fill="#fff"/>
    <path d="M215 586h104" />
    <path d="M239 586l-26 87" />
    <path d="M290 586l25 86" />
    <path d="M186 534l-44 39" />
    <path d="M314 536l54 18" />
    <rect x="420" y="168" width="622" height="462" rx="32" fill="#fff"/>
    <path d="M462 220h210" />
    <path d="M462 270h162" />
    <path d="M462 320h245" />
    <path d="M462 370h190" />
    <path d="M462 420h222" />
    <path d="M462 470h160" />
    <path d="M462 520h262" />
    <path d="M462 570h188" />
    <path d="M790 226c76 10 137 48 182 113 33 47 49 99 48 156" />
    <path d="M1004 492c-11 58-38 107-83 149" />
    <path d="M812 514h120" />
    <path d="M868 514v-96" />
    <path d="M868 418l44 50" />
    <path d="M911 468l-86 80" />
    <path d="M746 304h120" />
    <path d="M746 350h86" />
    <path d="M746 396h152" />
    <path d="M746 442h110" />
  </g>
  <g fill="#fff" stroke="#111111" stroke-width="6" stroke-linecap="round" stroke-linejoin="round">
    <rect x="820" y="246" width="148" height="82" rx="18"/>
    <rect x="820" y="350" width="148" height="82" rx="18"/>
    <rect x="820" y="454" width="148" height="82" rx="18"/>
  </g>
  <g stroke="#f15a24" stroke-width="8" stroke-linecap="round" stroke-linejoin="round">
    <path d="M363 392c58-5 109-3 153 8" />
    <path d="M654 242c32 20 57 45 74 75" />
    <path d="M1024 210c28 32 41 67 41 107" />
  </g>
  <g fill="#0f62fe" stroke="#111111" stroke-width="6" stroke-linecap="round" stroke-linejoin="round">
    <circle cx="920" cy="584" r="70"/>
    <path d="M892 584h56" />
    <path d="M920 556v56" />
  </g>
  <text x="76" y="106" font-size="44" font-family="Arial, sans-serif" fill="#111111">Debug layers</text>
  <text x="822" y="692" font-size="34" font-family="Arial, sans-serif" fill="#111111">symptom → layer → root cause</text>
</svg>
